<svg width="82" height="21" viewBox="0 0 82 21" fill="none" xmlns="http://www.w3.org/2000/svg">
<path d="M11.384 20V2.72H15.632V20H11.384ZM0.824 20V2.72H5.096V20H0.824ZM3.128 13.184V9.488H13.352V13.184H3.128ZM28.8447 20.264C27.6768 20.264 26.5968 20.136 25.6047 19.88C24.6287 19.624 23.7887 19.232 23.0847 18.704C22.3967 18.16 21.8607 17.448 21.4767 16.568C21.1087 15.688 20.9247 14.632 20.9247 13.4C20.9247 11.96 21.1967 10.728 21.7407 9.704C22.2847 8.664 23.0607 7.872 24.0687 7.328C25.0767 6.784 26.2687 6.512 27.6447 6.512C29.1328 6.512 30.3488 6.824 31.2927 7.448C32.2368 8.072 32.9168 8.928 33.3328 10.016C33.7648 11.104 33.9407 12.336 33.8607 13.712L33.8368 14.576H23.5167V12.08H29.8048V11.96C29.8048 11.16 29.6208 10.544 29.2528 10.112C28.9008 9.664 28.3407 9.44 27.5727 9.44C27.0768 9.44 26.6448 9.552 26.2768 9.776C25.9247 10 25.6447 10.376 25.4367 10.904C25.2447 11.416 25.1487 12.12 25.1487 13.016V13.784C25.1487 14.632 25.3167 15.296 25.6527 15.776C26.0047 16.24 26.4848 16.576 27.0928 16.784C27.7008 16.976 28.4128 17.072 29.2287 17.072C29.9648 17.072 30.6368 17 31.2448 16.856C31.8688 16.712 32.3488 16.544 32.6848 16.352H32.9248V19.64C32.4447 19.832 31.8687 19.984 31.1968 20.096C30.5408 20.208 29.7568 20.264 28.8447 20.264ZM25.1247 5.504V5.408L27.1648 1.76H30.8368V1.856L27.8368 5.504H25.1247ZM39.0693 20V5.768C39.0693 5.432 39.0613 5.024 39.0453 4.544C39.0453 4.048 39.0213 3.568 38.9733 3.104C38.9413 2.624 38.8933 2.24 38.8293 1.952L38.9013 1.76H43.2933V20H39.0693ZM51.4798 4.976C50.8238 4.976 50.2878 4.792 49.8718 4.424C49.4558 4.04 49.2478 3.496 49.2478 2.792C49.2478 2.088 49.4558 1.552 49.8718 1.184C50.2878 0.799999 50.8238 0.607999 51.4798 0.607999C52.1518 0.607999 52.6958 0.799999 53.1118 1.184C53.5278 1.552 53.7358 2.088 53.7358 2.792C53.7358 3.496 53.5278 4.04 53.1118 4.424C52.6958 4.792 52.1518 4.976 51.4798 4.976ZM49.3678 20V10.88C49.3678 10.56 49.3598 10.152 49.3438 9.656C49.3438 9.16 49.3198 8.68 49.2718 8.216C49.2398 7.736 49.1918 7.352 49.1278 7.064L49.1998 6.872H53.5918V20H49.3678ZM58.7576 13.4C58.7576 11.848 59.0456 10.568 59.6216 9.56C60.1976 8.536 60.9896 7.776 61.9976 7.28C63.0216 6.768 64.1976 6.512 65.5256 6.512C66.8376 6.512 68.0056 6.768 69.0296 7.28C70.0536 7.776 70.8536 8.536 71.4296 9.56C72.0056 10.568 72.2936 11.848 72.2936 13.4C72.2936 14.936 72.0056 16.216 71.4296 17.24C70.8536 18.248 70.0536 19.008 69.0296 19.52C68.0056 20.016 66.8376 20.264 65.5256 20.264C64.1976 20.264 63.0216 20.016 61.9976 19.52C60.9736 19.008 60.1736 18.248 59.5976 17.24C59.0376 16.216 58.7576 14.936 58.7576 13.4ZM63.0536 13.4C63.0536 14.648 63.2536 15.592 63.6536 16.232C64.0696 16.872 64.6936 17.192 65.5256 17.192C66.3576 17.192 66.9736 16.872 67.3736 16.232C67.7896 15.592 67.9976 14.648 67.9976 13.4C67.9976 12.136 67.7896 11.184 67.3736 10.544C66.9736 9.904 66.3576 9.584 65.5256 9.584C64.6936 9.584 64.0696 9.904 63.6536 10.544C63.2536 11.184 63.0536 12.136 63.0536 13.4ZM79.1418 20.264C78.4698 20.264 77.9178 20.056 77.4858 19.64C77.0538 19.208 76.8378 18.648 76.8378 17.96C76.8378 17.256 77.0538 16.696 77.4858 16.28C77.9178 15.848 78.4698 15.632 79.1418 15.632C79.8458 15.632 80.4058 15.848 80.8218 16.28C81.2538 16.696 81.4698 17.256 81.4698 17.96C81.4698 18.648 81.2538 19.208 80.8218 19.64C80.4058 20.056 79.8458 20.264 79.1418 20.264Z" fill="#FE8989"/>
</svg>
