<svg width="135" height="21" viewBox="0 0 135 21" fill="none" xmlns="http://www.w3.org/2000/svg">
<path d="M0.0560001 13.4C0.0560001 11.848 0.344 10.568 0.92 9.56C1.496 8.536 2.288 7.776 3.296 7.28C4.32 6.768 5.496 6.512 6.824 6.512C8.136 6.512 9.304 6.768 10.328 7.28C11.352 7.776 12.152 8.536 12.728 9.56C13.304 10.568 13.592 11.848 13.592 13.4C13.592 14.936 13.304 16.216 12.728 17.24C12.152 18.248 11.352 19.008 10.328 19.52C9.304 20.016 8.136 20.264 6.824 20.264C5.496 20.264 4.32 20.016 3.296 19.52C2.272 19.008 1.472 18.248 0.896 17.24C0.336 16.216 0.0560001 14.936 0.0560001 13.4ZM4.352 13.4C4.352 14.648 4.552 15.592 4.952 16.232C5.368 16.872 5.992 17.192 6.824 17.192C7.656 17.192 8.272 16.872 8.672 16.232C9.088 15.592 9.296 14.648 9.296 13.4C9.296 12.136 9.088 11.184 8.672 10.544C8.272 9.904 7.656 9.584 6.824 9.584C5.992 9.584 5.368 9.904 4.952 10.544C4.552 11.184 4.352 12.136 4.352 13.4ZM15.2803 20V11.552C15.2803 11.232 15.2723 10.824 15.2563 10.328C15.2563 9.816 15.2323 9.32 15.1843 8.84C15.1523 8.344 15.1043 7.952 15.0403 7.664L15.1123 7.472C15.5763 7.312 16.0963 7.168 16.6723 7.04C17.2643 6.912 17.9123 6.808 18.6163 6.728C19.3363 6.632 20.1203 6.584 20.9683 6.584C21.2083 6.584 21.5283 6.592 21.9283 6.608C22.3443 6.624 22.7843 6.672 23.2483 6.752V10.064H22.9843C22.7123 10 22.4163 9.952 22.0963 9.92C21.7923 9.872 21.4883 9.848 21.1843 9.848C20.6563 9.848 20.1603 9.896 19.6963 9.992C19.2323 10.072 18.8403 10.184 18.5203 10.328L19.0963 9.392C19.3683 9.776 19.5043 10.592 19.5043 11.84V20H15.2803ZM24.5099 20V11.888C24.5099 11.568 24.5019 11.16 24.4859 10.664C24.4859 10.152 24.4619 9.656 24.4139 9.176C24.3819 8.68 24.3339 8.288 24.2699 8L24.3419 7.808C24.8699 7.584 25.4699 7.376 26.1419 7.184C26.8299 6.992 27.5499 6.832 28.3019 6.704C29.0699 6.576 29.8299 6.512 30.5819 6.512C31.4139 6.512 32.2219 6.6 33.0059 6.776C33.7899 6.952 34.4939 7.264 35.1179 7.712C35.7579 8.144 36.2619 8.752 36.6299 9.536C36.9979 10.32 37.1819 11.312 37.1819 12.512V20H32.9579V12.656C32.9579 11.904 32.8459 11.328 32.6219 10.928C32.3979 10.528 32.0779 10.248 31.6619 10.088C31.2619 9.928 30.7979 9.848 30.2699 9.848C29.8059 9.848 29.3659 9.904 28.9499 10.016C28.5339 10.128 28.1579 10.24 27.8219 10.352L28.4219 9.416C28.5339 9.656 28.6139 9.976 28.6619 10.376C28.7099 10.76 28.7339 11.248 28.7339 11.84V20H24.5099ZM41.6407 4.976C40.9847 4.976 40.4487 4.792 40.0327 4.424C39.6167 4.04 39.4087 3.496 39.4087 2.792C39.4087 2.088 39.6167 1.552 40.0327 1.184C40.4487 0.799999 40.9847 0.607999 41.6407 0.607999C42.3127 0.607999 42.8567 0.799999 43.2727 1.184C43.6887 1.552 43.8967 2.088 43.8967 2.792C43.8967 3.496 43.6887 4.04 43.2727 4.424C42.8567 4.792 42.3127 4.976 41.6407 4.976ZM39.5287 20V10.88C39.5287 10.56 39.5207 10.152 39.5047 9.656C39.5047 9.16 39.4807 8.68 39.4327 8.216C39.4007 7.736 39.3527 7.352 39.2887 7.064L39.3607 6.872H43.7527V20H39.5287ZM52.6591 20.192C51.4911 20.192 50.4671 20.04 49.5871 19.736C48.7231 19.416 48.0431 18.888 47.5471 18.152C47.0671 17.4 46.8271 16.392 46.8271 15.128V3.584H51.0511V14.816C51.0511 15.552 51.2271 16.08 51.5791 16.4C51.9471 16.704 52.5151 16.856 53.2831 16.856C53.5711 16.856 53.8511 16.824 54.1231 16.76C54.3951 16.696 54.6351 16.624 54.8431 16.544H55.1071V19.856C54.7551 19.968 54.3871 20.048 54.0031 20.096C53.6191 20.16 53.1711 20.192 52.6591 20.192ZM44.6911 10.136V6.872H54.5071V10.136H44.6911ZM55.556 13.4C55.556 11.848 55.844 10.568 56.42 9.56C56.996 8.536 57.788 7.776 58.796 7.28C59.82 6.768 60.996 6.512 62.324 6.512C63.636 6.512 64.804 6.768 65.828 7.28C66.852 7.776 67.652 8.536 68.228 9.56C68.804 10.568 69.092 11.848 69.092 13.4C69.092 14.936 68.804 16.216 68.228 17.24C67.652 18.248 66.852 19.008 65.828 19.52C64.804 20.016 63.636 20.264 62.324 20.264C60.996 20.264 59.82 20.016 58.796 19.52C57.772 19.008 56.972 18.248 56.396 17.24C55.836 16.216 55.556 14.936 55.556 13.4ZM59.852 13.4C59.852 14.648 60.052 15.592 60.452 16.232C60.868 16.872 61.492 17.192 62.324 17.192C63.156 17.192 63.772 16.872 64.172 16.232C64.588 15.592 64.796 14.648 64.796 13.4C64.796 12.136 64.588 11.184 64.172 10.544C63.772 9.904 63.156 9.584 62.324 9.584C61.492 9.584 60.868 9.904 60.452 10.544C60.052 11.184 59.852 12.136 59.852 13.4ZM70.7803 20V11.552C70.7803 11.232 70.7723 10.824 70.7563 10.328C70.7563 9.816 70.7323 9.32 70.6843 8.84C70.6523 8.344 70.6043 7.952 70.5403 7.664L70.6123 7.472C71.0763 7.312 71.5963 7.168 72.1723 7.04C72.7643 6.912 73.4123 6.808 74.1163 6.728C74.8363 6.632 75.6203 6.584 76.4683 6.584C76.7083 6.584 77.0283 6.592 77.4283 6.608C77.8443 6.624 78.2843 6.672 78.7483 6.752V10.064H78.4843C78.2123 10 77.9163 9.952 77.5963 9.92C77.2923 9.872 76.9883 9.848 76.6843 9.848C76.1563 9.848 75.6603 9.896 75.1963 9.992C74.7323 10.072 74.3403 10.184 74.0203 10.328L74.5963 9.392C74.8683 9.776 75.0043 10.592 75.0043 11.84V20H70.7803ZM80.0099 20V11.552C80.0099 11.232 80.0019 10.824 79.9859 10.328C79.9859 9.816 79.9619 9.32 79.9139 8.84C79.8819 8.344 79.8339 7.952 79.7699 7.664L79.8419 7.472C80.3059 7.312 80.8259 7.168 81.4019 7.04C81.9939 6.912 82.6419 6.808 83.3459 6.728C84.0659 6.632 84.8499 6.584 85.6979 6.584C85.9379 6.584 86.2579 6.592 86.6579 6.608C87.0739 6.624 87.5139 6.672 87.9779 6.752V10.064H87.7139C87.4419 10 87.1459 9.952 86.8259 9.92C86.5219 9.872 86.2179 9.848 85.9139 9.848C85.3859 9.848 84.8899 9.896 84.4259 9.992C83.9619 10.072 83.5699 10.184 83.2499 10.328L83.8259 9.392C84.0979 9.776 84.2339 10.592 84.2339 11.84V20H80.0099ZM91.3516 4.976C90.6956 4.976 90.1596 4.792 89.7436 4.424C89.3276 4.04 89.1196 3.496 89.1196 2.792C89.1196 2.088 89.3276 1.552 89.7436 1.184C90.1596 0.799999 90.6956 0.607999 91.3516 0.607999C92.0236 0.607999 92.5676 0.799999 92.9836 1.184C93.3996 1.552 93.6076 2.088 93.6076 2.792C93.6076 3.496 93.3996 4.04 92.9836 4.424C92.5676 4.792 92.0236 4.976 91.3516 4.976ZM89.2396 20V10.88C89.2396 10.56 89.2316 10.152 89.2156 9.656C89.2156 9.16 89.1916 8.68 89.1436 8.216C89.1116 7.736 89.0636 7.352 88.9996 7.064L89.0716 6.872H93.4636V20H89.2396ZM95.9381 20V11.888C95.9381 11.568 95.9301 11.16 95.9141 10.664C95.9141 10.152 95.8901 9.656 95.8421 9.176C95.8101 8.68 95.7621 8.288 95.6981 8L95.7701 7.808C96.2981 7.584 96.8981 7.376 97.5701 7.184C98.2581 6.992 98.9781 6.832 99.7301 6.704C100.498 6.576 101.258 6.512 102.01 6.512C102.842 6.512 103.65 6.6 104.434 6.776C105.218 6.952 105.922 7.264 106.546 7.712C107.186 8.144 107.69 8.752 108.058 9.536C108.426 10.32 108.61 11.312 108.61 12.512V20H104.386V12.656C104.386 11.904 104.274 11.328 104.05 10.928C103.826 10.528 103.506 10.248 103.09 10.088C102.69 9.928 102.226 9.848 101.698 9.848C101.234 9.848 100.794 9.904 100.378 10.016C99.9621 10.128 99.5861 10.24 99.2501 10.352L99.8501 9.416C99.9621 9.656 100.042 9.976 100.09 10.376C100.138 10.76 100.162 11.248 100.162 11.84V20H95.9381ZM110.119 13.4C110.119 11.8 110.447 10.496 111.103 9.488C111.759 8.464 112.655 7.712 113.791 7.232C114.943 6.752 116.255 6.512 117.727 6.512C118.847 6.512 119.815 6.656 120.631 6.944V10.304H120.367C120.095 10.176 119.783 10.072 119.431 9.992C119.079 9.896 118.663 9.848 118.183 9.848C116.983 9.848 116.055 10.152 115.398 10.76C114.743 11.352 114.415 12.232 114.415 13.4C114.415 14.552 114.743 15.432 115.398 16.04C116.055 16.632 116.983 16.928 118.183 16.928C118.663 16.928 119.079 16.888 119.431 16.808C119.783 16.712 120.095 16.608 120.367 16.496H120.631V19.832C119.815 20.12 118.847 20.264 117.727 20.264C116.223 20.264 114.895 20.024 113.743 19.544C112.607 19.064 111.719 18.32 111.079 17.312C110.439 16.288 110.119 14.984 110.119 13.4ZM121.458 13.4C121.458 11.848 121.746 10.568 122.322 9.56C122.898 8.536 123.69 7.776 124.698 7.28C125.722 6.768 126.898 6.512 128.226 6.512C129.538 6.512 130.706 6.768 131.73 7.28C132.754 7.776 133.554 8.536 134.13 9.56C134.706 10.568 134.994 11.848 134.994 13.4C134.994 14.936 134.706 16.216 134.13 17.24C133.554 18.248 132.754 19.008 131.73 19.52C130.706 20.016 129.538 20.264 128.226 20.264C126.898 20.264 125.722 20.016 124.698 19.52C123.674 19.008 122.874 18.248 122.298 17.24C121.738 16.216 121.458 14.936 121.458 13.4ZM125.754 13.4C125.754 14.648 125.954 15.592 126.354 16.232C126.77 16.872 127.394 17.192 128.226 17.192C129.058 17.192 129.674 16.872 130.074 16.232C130.49 15.592 130.698 14.648 130.698 13.4C130.698 12.136 130.49 11.184 130.074 10.544C129.674 9.904 129.058 9.584 128.226 9.584C127.394 9.584 126.77 9.904 126.354 10.544C125.954 11.184 125.754 12.136 125.754 13.4Z" fill="url(#paint0_linear_1399_6)"/>
<defs>
<linearGradient id="paint0_linear_1399_6" x1="-1" y1="15" x2="138" y2="15" gradientUnits="userSpaceOnUse">
<stop stop-color="#89A3FE"/>
<stop offset="1" stop-color="#51C185"/>
</linearGradient>
</defs>
</svg>
