<svg width="135" height="21" viewBox="0 0 135 21" fill="none" xmlns="http://www.w3.org/2000/svg">
<path d="M0.0270923 13.4C0.0270923 11.848 0.315092 10.568 0.891092 9.56C1.46709 8.536 2.25909 7.776 3.26709 7.28C4.29109 6.768 5.46709 6.512 6.79509 6.512C8.10709 6.512 9.27509 6.768 10.2991 7.28C11.3231 7.776 12.1231 8.536 12.6991 9.56C13.2751 10.568 13.5631 11.848 13.5631 13.4C13.5631 14.936 13.2751 16.216 12.6991 17.24C12.1231 18.248 11.3231 19.008 10.2991 19.52C9.27509 20.016 8.10709 20.264 6.79509 20.264C5.46709 20.264 4.29109 20.016 3.26709 19.52C2.24309 19.008 1.44309 18.248 0.867092 17.24C0.307092 16.216 0.0270923 14.936 0.0270923 13.4ZM4.32309 13.4C4.32309 14.648 4.52309 15.592 4.92309 16.232C5.33909 16.872 5.96309 17.192 6.79509 17.192C7.62709 17.192 8.24309 16.872 8.64309 16.232C9.05909 15.592 9.26709 14.648 9.26709 13.4C9.26709 12.136 9.05909 11.184 8.64309 10.544C8.24309 9.904 7.62709 9.584 6.79509 9.584C5.96309 9.584 5.33909 9.904 4.92309 10.544C4.52309 11.184 4.32309 12.136 4.32309 13.4ZM15.2513 20V11.552C15.2513 11.232 15.2433 10.824 15.2273 10.328C15.2273 9.816 15.2033 9.32 15.1553 8.84C15.1233 8.344 15.0753 7.952 15.0113 7.664L15.0833 7.472C15.5473 7.312 16.0673 7.168 16.6433 7.04C17.2353 6.912 17.8833 6.808 18.5873 6.728C19.3073 6.632 20.0913 6.584 20.9393 6.584C21.1793 6.584 21.4993 6.592 21.8993 6.608C22.3153 6.624 22.7553 6.672 23.2193 6.752V10.064H22.9553C22.6833 10 22.3873 9.952 22.0673 9.92C21.7633 9.872 21.4593 9.848 21.1553 9.848C20.6273 9.848 20.1313 9.896 19.6673 9.992C19.2033 10.072 18.8113 10.184 18.4913 10.328L19.0673 9.392C19.3393 9.776 19.4753 10.592 19.4753 11.84V20H15.2513ZM24.481 20V11.888C24.481 11.568 24.473 11.16 24.457 10.664C24.457 10.152 24.433 9.656 24.385 9.176C24.353 8.68 24.305 8.288 24.241 8L24.313 7.808C24.841 7.584 25.441 7.376 26.113 7.184C26.801 6.992 27.521 6.832 28.273 6.704C29.041 6.576 29.801 6.512 30.553 6.512C31.385 6.512 32.193 6.6 32.977 6.776C33.761 6.952 34.465 7.264 35.089 7.712C35.729 8.144 36.233 8.752 36.601 9.536C36.969 10.32 37.153 11.312 37.153 12.512V20H32.929V12.656C32.929 11.904 32.817 11.328 32.593 10.928C32.369 10.528 32.049 10.248 31.633 10.088C31.233 9.928 30.769 9.848 30.241 9.848C29.777 9.848 29.337 9.904 28.921 10.016C28.505 10.128 28.129 10.24 27.793 10.352L28.393 9.416C28.505 9.656 28.585 9.976 28.633 10.376C28.681 10.76 28.705 11.248 28.705 11.84V20H24.481ZM41.6118 4.976C40.9558 4.976 40.4198 4.792 40.0038 4.424C39.5878 4.04 39.3798 3.496 39.3798 2.792C39.3798 2.088 39.5878 1.552 40.0038 1.184C40.4198 0.799999 40.9558 0.607999 41.6118 0.607999C42.2838 0.607999 42.8278 0.799999 43.2438 1.184C43.6598 1.552 43.8678 2.088 43.8678 2.792C43.8678 3.496 43.6598 4.04 43.2438 4.424C42.8278 4.792 42.2838 4.976 41.6118 4.976ZM39.4998 20V10.88C39.4998 10.56 39.4918 10.152 39.4758 9.656C39.4758 9.16 39.4518 8.68 39.4038 8.216C39.3718 7.736 39.3238 7.352 39.2598 7.064L39.3318 6.872H43.7238V20H39.4998ZM52.6302 20.192C51.4622 20.192 50.4382 20.04 49.5582 19.736C48.6942 19.416 48.0142 18.888 47.5182 18.152C47.0382 17.4 46.7982 16.392 46.7982 15.128V3.584H51.0222V14.816C51.0222 15.552 51.1982 16.08 51.5502 16.4C51.9182 16.704 52.4862 16.856 53.2542 16.856C53.5422 16.856 53.8222 16.824 54.0942 16.76C54.3662 16.696 54.6062 16.624 54.8142 16.544H55.0782V19.856C54.7262 19.968 54.3582 20.048 53.9742 20.096C53.5902 20.16 53.1422 20.192 52.6302 20.192ZM44.6622 10.136V6.872H54.4782V10.136H44.6622ZM55.5271 13.4C55.5271 11.848 55.8151 10.568 56.3911 9.56C56.9671 8.536 57.7591 7.776 58.7671 7.28C59.7911 6.768 60.9671 6.512 62.2951 6.512C63.6071 6.512 64.7751 6.768 65.7991 7.28C66.8231 7.776 67.6231 8.536 68.1991 9.56C68.7751 10.568 69.0631 11.848 69.0631 13.4C69.0631 14.936 68.7751 16.216 68.1991 17.24C67.6231 18.248 66.8231 19.008 65.7991 19.52C64.7751 20.016 63.6071 20.264 62.2951 20.264C60.9671 20.264 59.7911 20.016 58.7671 19.52C57.7431 19.008 56.9431 18.248 56.3671 17.24C55.8071 16.216 55.5271 14.936 55.5271 13.4ZM59.8231 13.4C59.8231 14.648 60.0231 15.592 60.4231 16.232C60.8391 16.872 61.4631 17.192 62.2951 17.192C63.1271 17.192 63.7431 16.872 64.1431 16.232C64.5591 15.592 64.7671 14.648 64.7671 13.4C64.7671 12.136 64.5591 11.184 64.1431 10.544C63.7431 9.904 63.1271 9.584 62.2951 9.584C61.4631 9.584 60.8391 9.904 60.4231 10.544C60.0231 11.184 59.8231 12.136 59.8231 13.4ZM70.7513 20V11.552C70.7513 11.232 70.7433 10.824 70.7273 10.328C70.7273 9.816 70.7033 9.32 70.6553 8.84C70.6233 8.344 70.5753 7.952 70.5113 7.664L70.5833 7.472C71.0473 7.312 71.5673 7.168 72.1433 7.04C72.7353 6.912 73.3833 6.808 74.0873 6.728C74.8073 6.632 75.5913 6.584 76.4393 6.584C76.6793 6.584 76.9993 6.592 77.3993 6.608C77.8153 6.624 78.2553 6.672 78.7193 6.752V10.064H78.4553C78.1833 10 77.8873 9.952 77.5673 9.92C77.2633 9.872 76.9593 9.848 76.6553 9.848C76.1273 9.848 75.6313 9.896 75.1673 9.992C74.7033 10.072 74.3113 10.184 73.9913 10.328L74.5673 9.392C74.8393 9.776 74.9753 10.592 74.9753 11.84V20H70.7513ZM79.981 20V11.552C79.981 11.232 79.973 10.824 79.957 10.328C79.957 9.816 79.933 9.32 79.885 8.84C79.853 8.344 79.805 7.952 79.741 7.664L79.813 7.472C80.277 7.312 80.797 7.168 81.373 7.04C81.965 6.912 82.613 6.808 83.317 6.728C84.037 6.632 84.821 6.584 85.669 6.584C85.909 6.584 86.229 6.592 86.629 6.608C87.045 6.624 87.485 6.672 87.949 6.752V10.064H87.685C87.413 10 87.117 9.952 86.797 9.92C86.493 9.872 86.189 9.848 85.885 9.848C85.357 9.848 84.861 9.896 84.397 9.992C83.933 10.072 83.541 10.184 83.221 10.328L83.797 9.392C84.069 9.776 84.205 10.592 84.205 11.84V20H79.981ZM91.3227 4.976C90.6667 4.976 90.1307 4.792 89.7147 4.424C89.2987 4.04 89.0907 3.496 89.0907 2.792C89.0907 2.088 89.2987 1.552 89.7147 1.184C90.1307 0.799999 90.6667 0.607999 91.3227 0.607999C91.9947 0.607999 92.5387 0.799999 92.9547 1.184C93.3707 1.552 93.5787 2.088 93.5787 2.792C93.5787 3.496 93.3707 4.04 92.9547 4.424C92.5387 4.792 91.9947 4.976 91.3227 4.976ZM89.2107 20V10.88C89.2107 10.56 89.2027 10.152 89.1867 9.656C89.1867 9.16 89.1627 8.68 89.1147 8.216C89.0827 7.736 89.0347 7.352 88.9707 7.064L89.0427 6.872H93.4347V20H89.2107ZM95.9092 20V11.888C95.9092 11.568 95.9012 11.16 95.8852 10.664C95.8852 10.152 95.8612 9.656 95.8132 9.176C95.7812 8.68 95.7332 8.288 95.6692 8L95.7412 7.808C96.2692 7.584 96.8692 7.376 97.5412 7.184C98.2292 6.992 98.9492 6.832 99.7012 6.704C100.469 6.576 101.229 6.512 101.981 6.512C102.813 6.512 103.621 6.6 104.405 6.776C105.189 6.952 105.893 7.264 106.517 7.712C107.157 8.144 107.661 8.752 108.029 9.536C108.397 10.32 108.581 11.312 108.581 12.512V20H104.357V12.656C104.357 11.904 104.245 11.328 104.021 10.928C103.797 10.528 103.477 10.248 103.061 10.088C102.661 9.928 102.197 9.848 101.669 9.848C101.205 9.848 100.765 9.904 100.349 10.016C99.9332 10.128 99.5572 10.24 99.2212 10.352L99.8212 9.416C99.9332 9.656 100.013 9.976 100.061 10.376C100.109 10.76 100.133 11.248 100.133 11.84V20H95.9092ZM110.09 13.4C110.09 11.8 110.418 10.496 111.074 9.488C111.73 8.464 112.626 7.712 113.762 7.232C114.914 6.752 116.226 6.512 117.698 6.512C118.818 6.512 119.786 6.656 120.602 6.944V10.304H120.338C120.066 10.176 119.754 10.072 119.402 9.992C119.05 9.896 118.634 9.848 118.154 9.848C116.954 9.848 116.026 10.152 115.37 10.76C114.714 11.352 114.386 12.232 114.386 13.4C114.386 14.552 114.714 15.432 115.37 16.04C116.026 16.632 116.954 16.928 118.154 16.928C118.634 16.928 119.05 16.888 119.402 16.808C119.754 16.712 120.066 16.608 120.338 16.496H120.602V19.832C119.786 20.12 118.818 20.264 117.698 20.264C116.194 20.264 114.866 20.024 113.714 19.544C112.578 19.064 111.69 18.32 111.05 17.312C110.41 16.288 110.09 14.984 110.09 13.4ZM121.429 13.4C121.429 11.848 121.717 10.568 122.293 9.56C122.869 8.536 123.661 7.776 124.669 7.28C125.693 6.768 126.869 6.512 128.197 6.512C129.509 6.512 130.677 6.768 131.701 7.28C132.725 7.776 133.525 8.536 134.101 9.56C134.677 10.568 134.965 11.848 134.965 13.4C134.965 14.936 134.677 16.216 134.101 17.24C133.525 18.248 132.725 19.008 131.701 19.52C130.677 20.016 129.509 20.264 128.197 20.264C126.869 20.264 125.693 20.016 124.669 19.52C123.645 19.008 122.845 18.248 122.269 17.24C121.709 16.216 121.429 14.936 121.429 13.4ZM125.725 13.4C125.725 14.648 125.925 15.592 126.325 16.232C126.741 16.872 127.365 17.192 128.197 17.192C129.029 17.192 129.645 16.872 130.045 16.232C130.461 15.592 130.669 14.648 130.669 13.4C130.669 12.136 130.461 11.184 130.045 10.544C129.645 9.904 129.029 9.584 128.197 9.584C127.365 9.584 126.741 9.904 126.325 10.544C125.925 11.184 125.725 12.136 125.725 13.4Z" fill="url(#paint0_linear_1399_6)"/>
<defs>
<linearGradient id="paint0_linear_1399_6" x1="-2" y1="12" x2="137" y2="12" gradientUnits="userSpaceOnUse">
<stop stop-color="#89A3FE"/>
<stop offset="1" stop-color="#51C185"/>
</linearGradient>
</defs>
</svg>
